<?xml version="1.0" ?>
<svg width="60px" height="60px" viewBox="0 0 64 64" data-name="Layer 1" id="Layer_1" xmlns="http://www.w3.org/2000/svg" fill="white"><title/>
<path stroke="white" stroke-width="0.4px" opacity='0.3' d="M32,57.14A25.15,25.15,0,0,1,11.28,17.75,2,2,0,0,1,14.58,20a21.08,21.08,0,1,0,7.83-6.87A2,2,0,1,1,20.6,9.59,24.88,24.88,0,0,1,32,6.86a25.14,25.14,0,0,1,0,50.28Z"/>
<path stroke="white" stroke-width="0.4px" opacity='0.3' d="M25.5,41.61a2,2,0,0,1-2-2V24.39a2,2,0,0,1,4,0V39.61A2,2,0,0,1,25.5,41.61Z"/>
<path steoke="white" stroke-width="0.4px" opacity='0.3' d="M38.5,41.61a2,2,0,0,1-2-2V24.39a2,2,0,0,1,4,0V39.61A2,2,0,0,1,38.5,41.61Z"/></svg>
