<?xml version="1.0" encoding="utf-8"?><svg version="1.1" id="Layer_1" fill="#c8c8c8" xmlns="http://www.w3.org/2000/svg" xmlns:xlink="http://www.w3.org/1999/xlink" x="0px" y="0px" viewBox="0 0 122.88 110.35" style="enable-background:new 0 0 122.88 110.35" xml:space="preserve"><style type="text/css">.st0{fill-rule:evenodd;clip-rule:evenodd;}</style><g><path class="st0" d="M43.65,36.47h35.58c2.44,0,4.43,2,4.43,4.43v28.54c0,2.44-2,4.43-4.43,4.43H43.65c-2.44,0-4.43-1.99-4.43-4.43 V40.9C39.22,38.47,41.21,36.47,43.65,36.47L43.65,36.47z M6.32,0v6.22h12.22V0h6.32v14.88h73.15V0h6.32v6.22h12.22V0h6.32v110.35 h-6.32v-7.19h-12.22v7.19h-6.32V94.79H24.87v15.56h-6.32v-7.19H6.32v7.19H0V0H6.32L6.32,0z M98.01,21.2H24.87v67.27h73.15V21.2 L98.01,21.2z M116.56,96.84v-11.8h-12.22v11.8H116.56L116.56,96.84z M116.56,78.72v-11.8h-12.22v11.8H116.56L116.56,78.72z M116.56,60.59v-11.8h-12.22v11.8H116.56L116.56,60.59z M116.56,42.47v-11.8h-12.22v11.8H116.56L116.56,42.47z M116.56,24.35v-11.8 h-12.22v11.8H116.56L116.56,24.35z M18.54,96.84v-11.8H6.32v11.8H18.54L18.54,96.84z M18.54,78.72v-11.8H6.32v11.8H18.54 L18.54,78.72z M18.54,60.59v-11.8H6.32v11.8H18.54L18.54,60.59z M18.54,42.47v-11.8H6.32v11.8H18.54L18.54,42.47z M18.54,24.35 v-11.8H6.32v11.8H18.54L18.54,24.35z M46.71,55.01c0-1.03,0.17-2.04,0.52-3.03c0.34-1,0.85-1.89,1.51-2.68 c0.66-0.79,1.46-1.43,2.4-1.92c0.94-0.49,2.02-0.74,3.23-0.74c1.45,0,2.7,0.34,3.76,1.01c1.06,0.67,1.85,1.56,2.37,2.67l-3.14,2.51 c-0.14-0.41-0.33-0.75-0.56-1.02c-0.23-0.27-0.49-0.48-0.77-0.64c-0.28-0.16-0.57-0.27-0.88-0.33c-0.3-0.06-0.59-0.09-0.88-0.09 c-0.59,0-1.1,0.13-1.53,0.39c-0.43,0.26-0.78,0.6-1.05,1.02c-0.27,0.42-0.48,0.89-0.61,1.42c-0.13,0.53-0.2,1.06-0.2,1.58 c0,0.59,0.08,1.15,0.23,1.68c0.16,0.54,0.38,1.01,0.68,1.42c0.3,0.41,0.66,0.74,1.09,0.98c0.43,0.25,0.91,0.37,1.44,0.37 c0.28,0,0.57-0.04,0.86-0.11c0.3-0.07,0.58-0.19,0.85-0.36c0.27-0.17,0.52-0.38,0.74-0.64c0.22-0.26,0.39-0.58,0.52-0.96l3.35,2.25 c-0.23,0.62-0.57,1.17-1.02,1.66c-0.46,0.49-0.98,0.9-1.56,1.23c-0.58,0.33-1.21,0.58-1.88,0.76c-0.67,0.17-1.32,0.26-1.95,0.26 c-1.11,0-2.13-0.25-3.05-0.75c-0.92-0.5-1.72-1.16-2.38-1.98c-0.67-0.82-1.18-1.75-1.55-2.8C46.89,57.14,46.71,56.08,46.71,55.01 L46.71,55.01L46.71,55.01z M62.23,55.01c0-1.03,0.17-2.04,0.52-3.03c0.34-1,0.85-1.89,1.51-2.68c0.66-0.79,1.46-1.43,2.4-1.92 c0.94-0.49,2.02-0.74,3.23-0.74c1.45,0,2.7,0.34,3.76,1.01c1.06,0.67,1.85,1.56,2.37,2.67l-3.14,2.51 c-0.14-0.41-0.33-0.75-0.56-1.02c-0.23-0.27-0.49-0.48-0.77-0.64c-0.28-0.16-0.57-0.27-0.88-0.33c-0.3-0.06-0.59-0.09-0.88-0.09 c-0.59,0-1.1,0.13-1.53,0.39c-0.43,0.26-0.78,0.6-1.05,1.02c-0.27,0.42-0.48,0.89-0.61,1.42c-0.13,0.53-0.2,1.06-0.2,1.58 c0,0.59,0.08,1.15,0.23,1.68c0.15,0.54,0.38,1.01,0.67,1.42c0.3,0.41,0.66,0.74,1.09,0.98c0.43,0.25,0.91,0.37,1.44,0.37 c0.28,0,0.57-0.04,0.86-0.11c0.3-0.07,0.58-0.19,0.85-0.36c0.27-0.17,0.52-0.38,0.74-0.64c0.22-0.26,0.39-0.58,0.52-0.96l3.35,2.25 c-0.23,0.62-0.57,1.17-1.02,1.66c-0.46,0.49-0.98,0.9-1.56,1.23c-0.58,0.33-1.21,0.58-1.88,0.76c-0.67,0.17-1.32,0.26-1.95,0.26 c-1.11,0-2.13-0.25-3.05-0.75c-0.92-0.5-1.72-1.16-2.38-1.98c-0.67-0.82-1.18-1.75-1.55-2.8C62.42,57.14,62.23,56.08,62.23,55.01 L62.23,55.01L62.23,55.01z"/></g></svg>