<svg id="Layer_1" data-name="Layer 1" xmlns="http://www.w3.org/2000/svg" fill="#c8c8c8" viewBox="0 0 122.88 100.12"><title>video-edit</title><path d="M11.72,0h89.63a11.73,11.73,0,0,1,11.72,11.72V40a15.63,15.63,0,0,0-4.53-.1c-.37,0-.74.09-1.11.16V26.31H5.65V73.16h65.9a14.91,14.91,0,0,0-2.17,5.64H60.13V94.47h7.11l-.11.82a15.12,15.12,0,0,0,.13,4.83H11.72A11.74,11.74,0,0,1,0,88.4V11.72A11.74,11.74,0,0,1,11.72,0ZM97.2,94.26l-15,3,2.17-16L97.2,94.26ZM89.1,76.5l20.22-21a1.38,1.38,0,0,1,1.73-.27l11.47,11.1a1.22,1.22,0,0,1-.1,1.82L101.93,89.43,89.1,76.5ZM50.5,33.65,70.33,47.47a3,3,0,0,1,.81.79,2.81,2.81,0,0,1-.72,3.92L50.68,65.83a2.83,2.83,0,0,1-4.62-2.19V36s.43-1.49.51-1.62a2.83,2.83,0,0,1,3.93-.69Zm4,60.82V78.8H31.71V94.47ZM26.06,78.8H5.65v9.6a6.09,6.09,0,0,0,6.07,6.07H26.06V78.8ZM82.28,20.66v-15H60.13v15Zm5.65-15v15h19.49V11.72a6.09,6.09,0,0,0-6.08-6.07Zm-33.45,15v-15H31.71v15Zm-28.42,0v-15H11.72a6.09,6.09,0,0,0-6.07,6.07v8.94Z"/></svg>