<svg width="18" height="18" viewBox="0 0 18 18" fill="none" xmlns="http://www.w3.org/2000/svg">
<mask id="path-1-inside-1" fill="white">
<path fill-rule="evenodd" clip-rule="evenodd" d="M9 14.1994C12.866 14.1994 16 11.6923 16 8.59968C16 5.50706 12.866 3 9 3C5.13401 3 2 5.50706 2 8.59968C2 10.3063 2.95435 11.8345 4.45941 12.8616L4.42751 16L7.83245 14.1218C8.21214 14.1728 8.60219 14.1994 9 14.1994Z"/>
</mask>
<path fill-rule="evenodd" clip-rule="evenodd" d="M9 14.1994C12.866 14.1994 16 11.6923 16 8.59968C16 5.50706 12.866 3 9 3C5.13401 3 2 5.50706 2 8.59968C2 10.3063 2.95435 11.8345 4.45941 12.8616L4.42751 16L7.83245 14.1218C8.21214 14.1728 8.60219 14.1994 9 14.1994Z" fill="white"/>
<path d="M4.45941 12.8616L5.45936 12.8718L5.46479 12.3371L5.02308 12.0356L4.45941 12.8616ZM4.42751 16L3.42756 15.9898L3.41015 17.7032L4.91051 16.8756L4.42751 16ZM7.83245 14.1218L7.96557 13.1307L7.63845 13.0868L7.34945 13.2462L7.83245 14.1218ZM15 8.59968C15 10.9433 12.5335 13.1994 9 13.1994V15.1994C13.1985 15.1994 17 12.4413 17 8.59968H15ZM9 4C12.5335 4 15 6.25609 15 8.59968H17C17 4.75803 13.1985 2 9 2V4ZM3 8.59968C3 6.25609 5.46647 4 9 4V2C4.80155 2 1 4.75803 1 8.59968H3ZM5.02308 12.0356C3.73027 11.1534 3 9.90842 3 8.59968H1C1 10.7041 2.17842 12.5157 3.89573 13.6876L5.02308 12.0356ZM5.42746 16.0102L5.45936 12.8718L3.45946 12.8515L3.42756 15.9898L5.42746 16.0102ZM7.34945 13.2462L3.94451 15.1244L4.91051 16.8756L8.31545 14.9974L7.34945 13.2462ZM9 13.1994C8.64667 13.1994 8.30109 13.1758 7.96557 13.1307L7.69933 15.1129C8.12319 15.1698 8.55771 15.1994 9 15.1994V13.1994Z" fill="#A4A4A4" mask="url(#path-1-inside-1)"/>
<line x1="6" y1="6.5" x2="12" y2="6.5" stroke="#A4A4A4"/>
<line x1="6" y1="8.5" x2="12" y2="8.5" stroke="#A4A4A4"/>
<line x1="6" y1="10.5" x2="12" y2="10.5" stroke="#A4A4A4"/>
</svg>
