<svg width="17" height="14" viewBox="0 0 17 14" fill="none" xmlns="http://www.w3.org/2000/svg">
<rect x="1.21875" y="1.09375" width="14.9375" height="11.75" rx="1.5" fill="white" stroke="#A4A4A4"/>
<path d="M8.08203 8.08984C8.03776 8.70182 7.8112 9.18359 7.40234 9.53516C6.99609 9.88672 6.45964 10.0625 5.79297 10.0625C5.0638 10.0625 4.48958 9.81771 4.07031 9.32812C3.65365 8.83594 3.44531 8.16146 3.44531 7.30469V6.95703C3.44531 6.41016 3.54167 5.92839 3.73438 5.51172C3.92708 5.09505 4.20182 4.77604 4.55859 4.55469C4.91797 4.33073 5.33464 4.21875 5.80859 4.21875C6.46484 4.21875 6.99349 4.39453 7.39453 4.74609C7.79557 5.09766 8.02734 5.59115 8.08984 6.22656H6.91797C6.88932 5.85938 6.78646 5.59375 6.60938 5.42969C6.4349 5.26302 6.16797 5.17969 5.80859 5.17969C5.41797 5.17969 5.125 5.32031 4.92969 5.60156C4.73698 5.88021 4.63802 6.3138 4.63281 6.90234V7.33203C4.63281 7.94661 4.72526 8.39583 4.91016 8.67969C5.09766 8.96354 5.39193 9.10547 5.79297 9.10547C6.15495 9.10547 6.42448 9.02344 6.60156 8.85938C6.78125 8.69271 6.88411 8.4362 6.91016 8.08984H8.08203ZM13.3164 8.08984C13.2721 8.70182 13.0456 9.18359 12.6367 9.53516C12.2305 9.88672 11.694 10.0625 11.0273 10.0625C10.2982 10.0625 9.72396 9.81771 9.30469 9.32812C8.88802 8.83594 8.67969 8.16146 8.67969 7.30469V6.95703C8.67969 6.41016 8.77604 5.92839 8.96875 5.51172C9.16146 5.09505 9.4362 4.77604 9.79297 4.55469C10.1523 4.33073 10.569 4.21875 11.043 4.21875C11.6992 4.21875 12.2279 4.39453 12.6289 4.74609C13.0299 5.09766 13.2617 5.59115 13.3242 6.22656H12.1523C12.1237 5.85938 12.0208 5.59375 11.8438 5.42969C11.6693 5.26302 11.4023 5.17969 11.043 5.17969C10.6523 5.17969 10.3594 5.32031 10.1641 5.60156C9.97135 5.88021 9.8724 6.3138 9.86719 6.90234V7.33203C9.86719 7.94661 9.95964 8.39583 10.1445 8.67969C10.332 8.96354 10.6263 9.10547 11.0273 9.10547C11.3893 9.10547 11.6589 9.02344 11.8359 8.85938C12.0156 8.69271 12.1185 8.4362 12.1445 8.08984H13.3164Z" fill="#A4A4A4"/>
</svg>
