<svg width="18" height="18" viewBox="0 0 18 18" fill="none" xmlns="http://www.w3.org/2000/svg">
<rect x="1.5" y="3.5" width="15" height="11" rx="1.5" fill="white" stroke="#A4A4A4"/>
<path d="M8.63672 9.87109C8.59245 10.4831 8.36589 10.9648 7.95703 11.3164C7.55078 11.668 7.01432 11.8438 6.34766 11.8438C5.61849 11.8438 5.04427 11.599 4.625 11.1094C4.20833 10.6172 4 9.94271 4 9.08594V8.73828C4 8.19141 4.09635 7.70964 4.28906 7.29297C4.48177 6.8763 4.75651 6.55729 5.11328 6.33594C5.47266 6.11198 5.88932 6 6.36328 6C7.01953 6 7.54818 6.17578 7.94922 6.52734C8.35026 6.87891 8.58203 7.3724 8.64453 8.00781H7.47266C7.44401 7.64062 7.34115 7.375 7.16406 7.21094C6.98958 7.04427 6.72266 6.96094 6.36328 6.96094C5.97266 6.96094 5.67969 7.10156 5.48438 7.38281C5.29167 7.66146 5.19271 8.09505 5.1875 8.68359V9.11328C5.1875 9.72786 5.27995 10.1771 5.46484 10.4609C5.65234 10.7448 5.94661 10.8867 6.34766 10.8867C6.70964 10.8867 6.97917 10.8047 7.15625 10.6406C7.33594 10.474 7.4388 10.2174 7.46484 9.87109H8.63672Z" fill="#A4A4A4"/>
<path d="M13.8711 9.87109C13.8268 10.4831 13.6003 10.9648 13.1914 11.3164C12.7852 11.668 12.2487 11.8438 11.582 11.8438C10.8529 11.8438 10.2786 11.599 9.85938 11.1094C9.44271 10.6172 9.23438 9.94271 9.23438 9.08594V8.73828C9.23438 8.19141 9.33073 7.70964 9.52344 7.29297C9.71615 6.8763 9.99089 6.55729 10.3477 6.33594C10.707 6.11198 11.1237 6 11.5977 6C12.2539 6 12.7826 6.17578 13.1836 6.52734C13.5846 6.87891 13.8164 7.3724 13.8789 8.00781H12.707C12.6784 7.64062 12.5755 7.375 12.3984 7.21094C12.224 7.04427 11.957 6.96094 11.5977 6.96094C11.207 6.96094 10.9141 7.10156 10.7188 7.38281C10.526 7.66146 10.4271 8.09505 10.4219 8.68359V9.11328C10.4219 9.72786 10.5143 10.1771 10.6992 10.4609C10.8867 10.7448 11.181 10.8867 11.582 10.8867C11.944 10.8867 12.2135 10.8047 12.3906 10.6406C12.5703 10.474 12.6732 10.2174 12.6992 9.87109H13.8711Z" fill="#A4A4A4"/>
</svg>
